HIERARCHY
ROOT Hips
{
	OFFSET 0.000000 100.481300 0.000000
	CHANNELS 6 Xposition Yposition Zposition Xrotation Yrotation Zrotation 
	JOINT Spine
	{
		OFFSET -0.279200 12.230698 -2.892100
		CHANNELS 3 Xrotation Yrotation Zrotation
		JOINT Spine1
		{
			OFFSET -0.232667 10.192268 -1.242267
			CHANNELS 3 Xrotation Yrotation Zrotation
			JOINT Spine1_split
			{
				OFFSET -0.232667 10.192268 -1.242267
				CHANNELS 3 Xrotation Yrotation Zrotation
				JOINT Spine2
				{
					OFFSET -0.232667 10.192268 -1.242267
					CHANNELS 3 Xrotation Yrotation Zrotation
					JOINT Neck
					{
						OFFSET -0.418800 17.814194 8.416900
						CHANNELS 3 Xrotation Yrotation Zrotation
						JOINT Head
						{
							OFFSET 0.000000 7.031097 3.806800
							CHANNELS 3 Xrotation Yrotation Zrotation
							JOINT HeadTop_End
							{
								OFFSET 0.000000 24.646606 12.978600
								CHANNELS 3 Xrotation Yrotation Zrotation
								End Site
								{
									OFFSET 0.000000 0.000000 0.000000
								}
							}
						}
					}
					JOINT LeftShoulder
					{
						OFFSET 8.476499 7.247704 -3.868750
						CHANNELS 3 Xrotation Yrotation Zrotation
						JOINT LeftShoulder_split
						{
							OFFSET 8.476499 7.247704 -3.868750
							CHANNELS 3 Xrotation Yrotation Zrotation
							JOINT LeftArm
							{
								OFFSET 9.308998 -2.777710 0.208600
								CHANNELS 3 Xrotation Yrotation Zrotation
								JOINT LeftForeArm
								{
									OFFSET 29.972298 0.000000 0.000000
									CHANNELS 3 Xrotation Yrotation Zrotation
									JOINT LeftHand
									{
										OFFSET 26.026505 0.000000 0.000000
										CHANNELS 3 Xrotation Yrotation Zrotation
										JOINT LeftHandThumb1
										{
											OFFSET 12.240501 -7.147949 9.207150
											CHANNELS 3 Xrotation Yrotation Zrotation
											JOINT LeftHandThumb2
											{
												OFFSET 4.138618 -2.389435 2.389433
												CHANNELS 3 Xrotation Yrotation Zrotation
												JOINT LeftHandThumb3
												{
													OFFSET 2.726913 -1.574387 1.574386
													CHANNELS 3 Xrotation Yrotation Zrotation
													JOINT LeftHandThumb4
													{
														OFFSET 3.941010 -2.275345 2.275342
														CHANNELS 3 Xrotation Yrotation Zrotation
														End Site
														{
															OFFSET 0.000000 0.000000 0.000000
														}
													}
												}
											}
										}
										JOINT LeftHandIndex1
										{
											OFFSET 24.424698 -1.985611 5.953459
											CHANNELS 3 Xrotation Yrotation Zrotation
											JOINT LeftHandIndex2
											{
												OFFSET 6.426697 0.000000 0.000000
												CHANNELS 3 Xrotation Yrotation Zrotation
												JOINT LeftHandIndex3
												{
													OFFSET 5.337898 0.000000 0.000000
													CHANNELS 3 Xrotation Yrotation Zrotation
													JOINT LeftHandIndex4
													{
														OFFSET 4.409401 0.000000 0.000000
														CHANNELS 3 Xrotation Yrotation Zrotation
														End Site
														{
															OFFSET 0.000000 0.000000 0.000000
														}
													}
												}
											}
										}
										JOINT LeftHandMiddle1
										{
											OFFSET 23.810104 0.000000 0.000000
											CHANNELS 3 Xrotation Yrotation Zrotation
											JOINT LeftHandMiddle2
											{
												OFFSET 7.176498 0.000000 0.000000
												CHANNELS 3 Xrotation Yrotation Zrotation
												JOINT LeftHandMiddle3
												{
													OFFSET 6.774902 0.000000 0.000000
													CHANNELS 3 Xrotation Yrotation Zrotation
													JOINT LeftHandMiddle4
													{
														OFFSET 5.403328 0.000000 0.000000
														CHANNELS 3 Xrotation Yrotation Zrotation
														End Site
														{
															OFFSET 0.000000 0.000000 0.000000
														}
													}
												}
											}
										}
										JOINT LeftHandRing1
										{
											OFFSET 22.908401 -0.839279 -6.020567
											CHANNELS 3 Xrotation Yrotation Zrotation
											JOINT LeftHandRing2
											{
												OFFSET 6.337502 0.000000 0.000000
												CHANNELS 3 Xrotation Yrotation Zrotation
												JOINT LeftHandRing3
												{
													OFFSET 5.779297 0.000000 0.000000
													CHANNELS 3 Xrotation Yrotation Zrotation
													JOINT LeftHandRing4
													{
														OFFSET 4.965698 0.000000 0.000000
														CHANNELS 3 Xrotation Yrotation Zrotation
														End Site
														{
															OFFSET 0.000000 0.000000 0.000000
														}
													}
												}
											}
										}
										JOINT LeftHandPinky1
										{
											OFFSET 20.037003 -1.530319 -10.950146
											CHANNELS 3 Xrotation Yrotation Zrotation
											JOINT LeftHandPinky2
											{
												OFFSET 5.254700 0.000000 0.000000
												CHANNELS 3 Xrotation Yrotation Zrotation
												JOINT LeftHandPinky3
												{
													OFFSET 4.810204 0.000000 0.000000
													CHANNELS 3 Xrotation Yrotation Zrotation
													JOINT LeftHandPinky4
													{
														OFFSET 3.647202 0.000000 0.000000
														CHANNELS 3 Xrotation Yrotation Zrotation
														End Site
														{
															OFFSET 0.000000 0.000000 0.000000
														}
													}
												}
											}
										}
									}
								}
							}
						}
					}
					JOINT RightShoulder
					{
						OFFSET -7.570500 7.247704 -3.868750
						CHANNELS 3 Xrotation Yrotation Zrotation
						JOINT RightShoulder_split
						{
							OFFSET -7.570500 7.247704 -3.868750
							CHANNELS 3 Xrotation Yrotation Zrotation
							JOINT RightArm
							{
								OFFSET -9.308998 -2.777710 0.208500
								CHANNELS 3 Xrotation Yrotation Zrotation
								JOINT RightForeArm
								{
									OFFSET -29.972300 0.000000 0.000000
									CHANNELS 3 Xrotation Yrotation Zrotation
									JOINT RightHand
									{
										OFFSET -26.026505 0.000000 0.000000
										CHANNELS 3 Xrotation Yrotation Zrotation
										JOINT RightHandThumb1
										{
											OFFSET -12.240601 -7.148026 9.207092
											CHANNELS 3 Xrotation Yrotation Zrotation
											JOINT RightHandThumb2
											{
												OFFSET -4.138618 -2.389435 2.389433
												CHANNELS 3 Xrotation Yrotation Zrotation
												JOINT RightHandThumb3
												{
													OFFSET -2.726974 -1.574417 1.574421
													CHANNELS 3 Xrotation Yrotation Zrotation
													JOINT RightHandThumb4
													{
														OFFSET -3.941010 -2.275345 2.275343
														CHANNELS 3 Xrotation Yrotation Zrotation
														End Site
														{
															OFFSET 0.000000 0.000000 0.000000
														}
													}
												}
											}
										}
										JOINT RightHandIndex1
										{
											OFFSET -24.424698 -1.985657 5.953444
											CHANNELS 3 Xrotation Yrotation Zrotation
											JOINT RightHandIndex2
											{
												OFFSET -6.426697 0.000000 0.000000
												CHANNELS 3 Xrotation Yrotation Zrotation
												JOINT RightHandIndex3
												{
													OFFSET -5.337898 0.000000 0.000000
													CHANNELS 3 Xrotation Yrotation Zrotation
													JOINT RightHandIndex4
													{
														OFFSET -4.409401 0.000000 0.000000
														CHANNELS 3 Xrotation Yrotation Zrotation
														End Site
														{
															OFFSET 0.000000 0.000000 0.000000
														}
													}
												}
											}
										}
										JOINT RightHandMiddle1
										{
											OFFSET -23.810097 0.000000 0.000000
											CHANNELS 3 Xrotation Yrotation Zrotation
											JOINT RightHandMiddle2
											{
												OFFSET -7.176498 0.000000 0.000000
												CHANNELS 3 Xrotation Yrotation Zrotation
												JOINT RightHandMiddle3
												{
													OFFSET -6.774902 0.000000 0.000000
													CHANNELS 3 Xrotation Yrotation Zrotation
													JOINT RightHandMiddle4
													{
														OFFSET -5.403328 0.000000 0.000000
														CHANNELS 3 Xrotation Yrotation Zrotation
														End Site
														{
															OFFSET 0.000000 0.000000 0.000000
														}
													}
												}
											}
										}
										JOINT RightHandRing1
										{
											OFFSET -22.908302 -0.839325 -6.020576
											CHANNELS 3 Xrotation Yrotation Zrotation
											JOINT RightHandRing2
											{
												OFFSET -6.337502 0.000000 0.000000
												CHANNELS 3 Xrotation Yrotation Zrotation
												JOINT RightHandRing3
												{
													OFFSET -5.779297 0.000000 0.000000
													CHANNELS 3 Xrotation Yrotation Zrotation
													JOINT RightHandRing4
													{
														OFFSET -4.965698 0.000000 0.000000
														CHANNELS 3 Xrotation Yrotation Zrotation
														End Site
														{
															OFFSET 0.000000 0.000000 0.000000
														}
													}
												}
											}
										}
										JOINT RightHandPinky1
										{
											OFFSET -20.037003 -1.530334 -10.950259
											CHANNELS 3 Xrotation Yrotation Zrotation
											JOINT RightHandPinky2
											{
												OFFSET -5.254700 0.000000 0.000000
												CHANNELS 3 Xrotation Yrotation Zrotation
												JOINT RightHandPinky3
												{
													OFFSET -4.810204 0.000000 0.000000
													CHANNELS 3 Xrotation Yrotation Zrotation
													JOINT RightHandPinky4
													{
														OFFSET -3.647202 0.000000 0.000000
														CHANNELS 3 Xrotation Yrotation Zrotation
														End Site
														{
															OFFSET 0.000000 0.000000 0.000000
														}
													}
												}
											}
										}
									}
								}
							}
						}
					}
				}
			}
		}
	}
	JOINT LeftUpLeg
	{
		OFFSET 15.427100 -6.655098 0.678600
		CHANNELS 3 Xrotation Yrotation Zrotation
		JOINT LeftLeg
		{
			OFFSET 4.081073 -39.591068 13.024000
			CHANNELS 3 Xrotation Yrotation Zrotation
			JOINT LeftFoot
			{
				OFFSET -4.081074 -37.707932 -15.979700
				CHANNELS 3 Xrotation Yrotation Zrotation
				JOINT LeftToeBase
				{
					OFFSET 5.346399 -15.068900 20.645000
					CHANNELS 3 Xrotation Yrotation Zrotation
					JOINT LeftToe_End
					{
						OFFSET 2.754700 0.931300 11.300900
						CHANNELS 3 Xrotation Yrotation Zrotation
						End Site
						{
							OFFSET 0.000000 0.000000 0.000000
						}
					}
				}
			}
		}
	}
	JOINT RightUpLeg
	{
		OFFSET -15.569500 -6.655098 0.678600
		CHANNELS 3 Xrotation Yrotation Zrotation
		JOINT RightLeg
		{
			OFFSET -4.081825 -39.591045 13.023800
			CHANNELS 3 Xrotation Yrotation Zrotation
			JOINT RightFoot
			{
				OFFSET 4.081824 -37.707954 -15.979600
				CHANNELS 3 Xrotation Yrotation Zrotation
				JOINT RightToeBase
				{
					OFFSET -5.346400 -15.068900 20.645000
					CHANNELS 3 Xrotation Yrotation Zrotation
					JOINT RightToe_End
					{
						OFFSET -2.754700 0.931300 11.300900
						CHANNELS 3 Xrotation Yrotation Zrotation
						End Site
						{
							OFFSET 0.000000 0.000000 0.000000
						}
					}
				}
			}
		}
	}
}
MOTION
Frames: 5
Frame Time: 0.016667
1.302878 90.727081 -49.983555 168.809054 -64.127417 167.407499 4.891650 2.032684 5.474374 -5.203247 2.467267 -3.030996 0.000000 0.000000 0.000000 -5.047562 2.231919 -3.347159 0.930291 23.548880 10.139639 4.348301 27.823728 -14.089300 -0.000000 -0.000001 -0.000000 1.079196 -0.344043 0.608159 0.000000 0.000000 0.000000 7.615776 0.677526 -69.161690 8.512014 -19.175246 -8.474006 -0.253760 5.731275 10.881024 -1.204154 -0.037734 2.325161 0.318662 1.093451 0.433693 1.367139 3.087633 0.738691 -0.000001 -0.000001 -0.000000 0.780511 2.266539 -9.845912 -0.039202 0.057430 -8.823537 0.004838 0.021868 -11.483929 -0.000001 -0.000000 -0.000000 -0.057950 1.143074 -15.947759 -0.014711 -0.043621 -10.491582 0.026430 0.018678 -12.894204 -0.000003 -0.000000 0.000001 -0.956177 0.304858 -20.266071 0.002275 0.016826 -13.465763 -0.030263 -0.026586 -16.389097 -0.000002 0.000000 0.000001 -2.256740 -1.970777 -24.904413 -0.016586 -0.001852 -16.389720 -0.007817 0.005377 -18.179679 -0.000001 -0.000002 -0.000000 2.374286 -3.484725 16.761271 0.000000 0.000000 0.000000 13.068532 30.204005 51.934791 13.595692 26.328836 -0.878550 -25.360463 0.110619 -14.410980 2.581847 -11.453551 -2.444551 -0.570752 -0.849116 0.050479 2.109283 -4.858612 -1.153876 -0.000000 -0.000001 0.000003 1.440383 0.413074 28.354762 -0.036430 -0.061718 22.129068 0.006694 -0.030075 21.882644 0.000002 -0.000003 -0.000003 1.194447 -2.816499 28.395487 -0.003761 0.018407 22.137625 0.032946 -0.034194 21.915213 0.000001 0.000001 0.000003 2.678413 -6.989702 31.433736 -0.003197 0.002751 24.099356 -0.036636 0.027517 23.863851 -0.000000 -0.000000 0.000000 1.168954 -9.903092 35.638021 -0.027258 -0.005262 28.957010 -0.016108 0.017623 28.716878 -0.000000 -0.000001 -0.000003 -28.569419 3.258989 16.015231 36.365580 -1.010147 -2.292598 -6.867067 1.451259 -4.956489 2.749707 5.423063 -7.268804 -0.000000 -0.000000 0.000000 -13.850422 -12.511572 10.758429 24.937410 10.562359 0.716609 -13.184980 0.670390 -13.462962 -2.307850 -8.055632 0.493674 0.000000 0.000000 -0.000000 
0.744425 90.791969 -50.917858 170.043406 -61.197238 168.761134 5.113818 2.308207 5.301894 -5.105464 2.660216 -2.985249 0.000000 0.000000 0.000000 -4.948701 2.420726 -3.321704 1.055484 22.542846 10.042757 3.926669 26.820368 -13.626397 0.000000 0.000000 0.000000 1.084987 -0.270533 0.764948 0.000000 0.000000 0.000000 7.759411 1.002655 -69.954579 9.038388 -17.908097 -8.643458 -0.335426 5.197239 10.898087 -1.478759 -0.052890 2.856651 0.423971 1.338720 0.492550 1.663847 3.799694 0.897486 -0.000001 -0.000001 -0.000002 0.776352 2.123264 -10.418611 -0.038684 0.058193 -9.704965 0.005383 0.023814 -12.991739 -0.000004 -0.000000 0.000001 -0.070178 1.239218 -17.072145 -0.015188 -0.043091 -11.179841 0.026469 0.018093 -14.160527 -0.000000 -0.000001 -0.000000 -0.932957 0.718943 -21.232280 0.001391 0.016847 -14.059885 -0.030550 -0.025419 -17.693663 0.000000 0.000003 -0.000001 -2.179916 -1.508453 -25.735050 -0.015920 -0.001820 -16.850608 -0.007681 0.005637 -19.102555 -0.000002 -0.000001 -0.000004 2.402567 -3.497398 16.751811 0.000000 0.000000 0.000000 12.583205 31.110911 52.037756 13.766164 26.236982 -1.171567 -25.494554 0.419199 -14.057183 2.689881 -11.385041 -2.336691 -0.589396 -0.816122 0.061324 2.078745 -4.785319 -1.138260 -0.000000 -0.000000 0.000001 1.424556 0.474515 28.171913 -0.036546 -0.061435 21.925419 0.005982 -0.030000 21.678090 0.000001 -0.000002 -0.000001 1.214503 -2.843277 28.205625 -0.004086 0.018562 22.050431 0.032216 -0.033615 21.858520 0.000001 -0.000001 -0.000001 2.743099 -7.190492 31.250475 -0.003122 0.002937 24.042225 -0.036854 0.027655 23.766605 0.000002 0.000000 0.000002 1.304906 -10.155925 35.440807 -0.027396 -0.004630 28.751774 -0.016535 0.018071 28.511942 -0.000000 0.000000 -0.000000 -28.864724 -0.117649 13.797356 36.008184 -1.389857 -2.215155 -6.177124 1.713902 -5.903011 2.574852 6.807096 -8.072506 0.000001 -0.000001 0.000000 -13.256854 -11.396668 11.568483 24.543211 12.580726 1.166648 -12.640185 0.484688 -14.915142 -2.374898 -7.985132 0.467717 0.000000 -0.000002 -0.000000 
0.190241 90.914078 -51.906528 171.064970 -58.286410 169.936377 5.307404 2.545267 5.011528 -4.955288 2.804414 -2.879609 0.000000 0.000000 0.000000 -4.801090 2.565713 -3.228154 1.136430 21.321713 9.663832 3.243144 25.509235 -12.836989 -0.000000 0.000000 -0.000000 1.090521 -0.182193 0.891429 0.000000 0.000000 0.000000 7.710986 1.275663 -70.804623 9.524835 -16.278612 -8.901405 -0.390373 4.458861 10.944890 -1.769599 -0.071489 3.420122 0.535340 1.598855 0.554601 1.976556 4.555680 1.061944 -0.000000 -0.000001 -0.000004 0.768862 1.971741 -11.025886 -0.038098 0.058894 -10.639444 0.006016 0.025607 -14.590657 0.000000 0.000001 -0.000001 -0.079998 1.342124 -18.264392 -0.015688 -0.042495 -11.909600 0.026546 0.017516 -15.503312 -0.000003 -0.000000 0.000000 -0.893363 1.157124 -22.256294 0.000512 0.016841 -14.689855 -0.030903 -0.024222 -19.077000 -0.000003 -0.000000 -0.000002 -2.084343 -1.021326 -26.615712 -0.015222 -0.001724 -17.339248 -0.007443 0.005873 -20.081190 0.000002 -0.000000 -0.000002 2.414814 -3.468822 16.571752 0.000000 0.000000 0.000000 11.779224 32.237841 52.296556 13.724219 25.885333 -1.445377 -25.372607 0.810123 -13.612442 2.749190 -11.300849 -2.257990 -0.586611 -0.825565 0.059896 2.064363 -4.749264 -1.130734 -0.000000 0.000000 0.000001 1.416256 0.519350 27.896014 -0.036855 -0.061108 21.624311 0.005104 -0.029917 21.375996 0.000002 -0.000000 0.000000 1.233998 -2.874390 27.920251 -0.004613 0.018923 21.892961 0.031283 -0.032918 21.738928 -0.000001 -0.000002 -0.000003 2.793559 -7.399040 30.970899 -0.003029 0.003474 23.922102 -0.037510 0.027854 23.596757 0.000001 -0.000001 -0.000002 1.432157 -10.393835 35.139684 -0.027700 -0.003785 28.434096 -0.017154 0.018802 28.194562 0.000001 -0.000000 -0.000000 -29.080698 -3.832595 11.544714 35.263724 -1.366711 -2.096532 -5.557558 1.972797 -6.256285 1.930797 9.041228 -9.074024 0.000000 -0.000000 -0.000000 -12.560727 -10.272067 12.299151 24.030593 14.560862 1.611353 -12.028454 0.312317 -16.306167 -2.450153 -7.915213 0.444014 0.000000 0.000001 0.000000 
-0.366658 91.065384 -52.928577 171.918211 -55.381844 170.958337 5.493611 2.762809 4.662627 -4.780151 2.924348 -2.745299 0.000000 0.000000 0.000000 -4.630334 2.689119 -3.101841 1.155753 19.904785 9.110449 2.411542 23.932092 -11.826766 -0.000000 0.000001 0.000000 1.095807 -0.075106 0.979791 0.000000 0.000000 0.000000 7.590591 1.535482 -71.647339 10.023783 -14.552001 -9.196441 -0.424802 3.666671 10.967954 -2.073305 -0.093862 4.009387 0.651483 1.871034 0.618952 2.301616 5.347030 1.229645 -0.000004 0.000000 0.000001 0.757639 1.813757 -11.660779 -0.037463 0.059749 -11.616616 0.006675 0.027250 -16.262353 0.000005 0.000000 -0.000001 -0.085268 1.450668 -19.510843 -0.016159 -0.041855 -12.672610 0.026602 0.016931 -16.907240 0.000001 0.000001 0.000001 -0.835505 1.613784 -23.326414 -0.000327 0.016828 -15.348487 -0.031230 -0.023001 -20.523296 0.000002 -0.000002 0.000002 -1.968854 -0.515666 -27.536522 -0.014517 -0.001582 -17.850249 -0.007325 0.006158 -21.104410 -0.000005 -0.000001 0.000001 2.421331 -3.425011 16.328216 0.000000 0.000000 0.000000 10.845205 33.443885 52.653621 13.606757 25.436950 -1.713358 -25.161070 1.234095 -13.135255 2.763452 -11.202519 -2.206399 -0.565041 -0.874839 0.047920 2.063676 -4.748165 -1.130104 0.000000 0.000001 0.000001 1.414811 0.548679 27.535102 -0.037201 -0.060759 21.233841 0.004018 -0.029831 20.984614 0.000001 -0.000001 -0.000000 1.252667 -2.909475 27.547276 -0.005336 0.019413 21.671085 0.030133 -0.032746 21.561568 0.000001 0.000001 0.000001 2.829541 -7.614542 30.603137 -0.002886 0.004145 23.744118 -0.037211 0.028395 23.360335 0.000002 -0.000000 0.000003 1.549882 -10.618315 34.743526 -0.028191 -0.002640 28.013403 -0.017941 0.019775 27.774141 0.000001 0.000000 -0.000002 -29.549908 -7.136704 9.575996 34.235312 -1.322553 -1.949646 -4.705478 2.253282 -7.143024 1.588649 10.307617 -9.424743 -0.000000 -0.000001 -0.000000 -11.799282 -9.151861 12.947352 23.460347 16.508861 2.047590 -11.379922 0.168602 -17.626370 -2.532330 -7.847083 0.422491 0.000000 -0.000000 -0.000000 
-0.932915 91.208611 -54.008873 172.641897 -52.482928 171.841986 5.670685 2.966779 4.281688 -4.581750 3.020528 -2.584858 0.000000 0.000000 0.000000 -4.438204 2.790694 -2.945376 1.042704 18.117347 8.309470 1.368299 21.872844 -10.460868 -0.000000 0.000001 0.000000 1.101103 0.072350 0.986376 0.000000 0.000000 0.000000 7.407077 1.790288 -72.430434 10.581910 -12.799773 -9.501897 -0.425674 2.866469 10.912332 -2.386462 -0.119885 4.617803 0.771164 2.152155 0.684719 2.635258 6.165228 1.398326 0.000001 -0.000000 -0.000001 0.742057 1.651241 -12.316417 -0.036827 0.060602 -12.625617 0.007421 0.028729 -17.988604 -0.000003 0.000001 0.000003 -0.085739 1.563590 -20.797977 -0.016609 -0.041175 -13.460488 0.026632 0.016317 -18.356984 -0.000000 0.000003 0.000001 -0.758107 2.083320 -24.431320 -0.001145 0.016830 -16.028608 -0.031533 -0.021819 -22.016898 -0.000001 0.000001 -0.000000 -1.833073 0.002130 -28.487621 -0.013756 -0.001434 -18.377961 -0.007221 0.006462 -22.160945 -0.000003 0.000001 -0.000002 2.426402 -3.376583 16.065232 0.000000 0.000000 0.000000 9.859327 34.669753 53.082608 13.469792 24.958406 -1.980119 -24.928217 1.669667 -12.649240 2.736028 -11.091766 -2.179836 -0.526082 -0.960415 0.026221 2.075524 -4.779222 -1.135763 -0.000001 0.000000 -0.000001 1.419655 0.563467 27.096872 -0.037599 -0.060326 20.762221 0.002786 -0.029691 20.512147 -0.000000 0.000000 -0.000005 1.270178 -2.948343 27.094860 -0.006053 0.019249 21.390529 0.028872 -0.032779 21.331459 -0.000001 -0.000001 -0.000003 2.850796 -7.835942 30.155022 -0.002755 0.004999 23.513273 -0.036674 0.029141 23.063290 -0.000000 0.000001 0.000002 1.657333 -10.830471 34.260922 -0.028723 -0.001281 27.499117 -0.018880 0.020953 27.260159 -0.000001 0.000001 0.000001 -30.534562 -10.096443 7.522813 33.117583 -1.823091 -1.808344 -3.380935 2.401710 -7.744139 1.367894 11.531502 -10.118924 -0.000000 -0.000002 -0.000000 -10.977291 -8.053139 13.553456 22.900117 18.426544 2.460234 -10.745086 0.062874 -18.900634 -2.619958 -7.781383 0.403158 -0.000000 0.000000 -0.000000 
